<svg width="76" height="60" viewBox="0 0 76 60" xmlns="http://www.w3.org/2000/svg"><title>The Quest Makers logo</title><g fill="none"><path d="M75.762 23.373l-3.427-.965a.864.864 0 0 0-1.062.584l-.026.092c-3.6-.655-6.683 1.556-9.213 3.448a26.678 26.678 0 0 0-.775-5.278c.016-.066.035-.134.05-.2.06-.267.036-.777-.26-.898a.267.267 0 0 0-.096-.019 26.626 26.626 0 0 0-1.75-4.38c.195-.459.422-.904.677-1.334a.012.012 0 0 1 .01 0h.338a8.4 8.4 0 0 1 1.862.327c1.317.333 2.405 1.133 3.023 2.755a.012.012 0 0 0 .02 0c.708-.591.833-1.556.374-2.569-.437-.971-1.148-1.491-1.925-1.875a9.054 9.054 0 0 0-2.297-.77l-.079-.186c.659-.997.615-1.182-.455-1.815-.2-.117-.414-.207-.616-.323-.677-.39-1.225-.247-1.636.398-.366.579-.7 1.184-1.07 1.754a.012.012 0 0 1-.01 0l-.41.017a27.39 27.39 0 0 0-12.179-9.46V1.96h-.278v.614l-.278-.104v-.51h-.279v.408l-.278-.096V1.96h-.278v.216l-.279-.09V1.96h-.271v.038a27.811 27.811 0 0 0-17.47.372 6.475 6.475 0 0 0-1.306.268 2.264 2.264 0 0 0-1.15.745 27.411 27.411 0 0 0-8.752 6.516c-2.8.964-5.331 2.897-6.446 5.339a5.392 5.392 0 0 0-.4 2.42c.04.824.555 1.555 1.243 2.029a26.686 26.686 0 0 0-1.223 9.302h-.16c-.1 0-.2.014-.315.024.072.095.13.173.175.242.082.126.192.23.323.305.012.189.027.377.043.565a.353.353 0 0 1-.35.088 40.11 40.11 0 0 1-1.099-.329.655.655 0 0 0-.41 0c-.264.082-.525.15-.796.225-.098.028-.194.066-.292.1v.047c.201.11.35.296.59.356a.406.406 0 0 1 .175.093.33.33 0 0 1 .066.395.398.398 0 0 1-.406.242c-.35-.01-.7-.026-1.06-.04a.617.617 0 0 0-.379.07c-.285.173-.58.346-.875.51-.056.037-.11.077-.163.12l.009.038c.231.055.43.21.684.197a.314.314 0 0 1 .33.19.325.325 0 0 1-.036.389.711.711 0 0 1-.283.185c-.334.088-.676.145-1.01.23a.746.746 0 0 0-.308.157c-.228.206-.441.425-.657.645-.075.077-.136.172-.218.273l.338.033c.157.031.32.023.474-.025a.264.264 0 0 1 .304.11.395.395 0 0 1 .048.488c-.088.14-.032.19.068.258l1.938 1.33c.147.1.162.101.257-.051a.272.272 0 0 1 .271-.131c.205.008.383.14.45.331a.452.452 0 0 1-.107.519.496.496 0 0 1-.565.126c-.175-.08-.33-.181-.494-.276l-1.463-.865c-.35-.204-.7-.399-1.034-.618a.341.341 0 0 0-.435 0c-.082.057-.196.095-.243.172-.196.322-.373.668-.555.998a1.68 1.68 0 0 0-.073.188c.28-.076.558-.024.779-.209a.16.16 0 0 1 .103-.033.41.41 0 0 1 .371.26.387.387 0 0 1-.072.41c-.229.215-.464.424-.7.642-.143.137-.31.25-.35.47-.06.303-.138.602-.21.902L0 39.597l.047.02c.126-.056.258-.105.378-.174.093-.05.179-.112.254-.185a.307.307 0 0 1 .35-.093.41.41 0 0 1 .224.636c-.192.313-.388.624-.586.933a.541.541 0 0 0-.098.332c.016.31.012.617.023.927 0 .095.024.188.04.3l.247-.181a.777.777 0 0 0 .308-.346.314.314 0 0 1 .163-.135.367.367 0 0 1 .421.083c.113.103.157.26.114.405-.108.378-.23.755-.34 1.134a.488.488 0 0 0-.01.249c.088.326.187.65.285.973.027.086.067.173.116.287.15-.244.35-.41.388-.67a.266.266 0 0 1 .212-.226.416.416 0 0 1 .39.052.404.404 0 0 1 .167.351c0 .313-.023.626-.025.939a.877.877 0 0 0 .084.542c.175.253.324.519.489.776.052.083.119.16.175.237l.038-.014c.102-.21.167-.438.191-.67a.357.357 0 0 1 .126-.305.368.368 0 0 1 .324-.076.487.487 0 0 1 .35.408c.084.36.172.72.264 1.079.017.062.05.118.095.164.233.224.467.444.7.66.086.08.175.147.271.22l.037-.016c-.012-.244.09-.48 0-.73a.3.3 0 0 1 0-.194.412.412 0 1 1 .75-.028c.165.3.321.605.491.902a.665.665 0 0 0 .278.315c.273.133.536.287.805.427.095.05.198.083.298.124l.044-.03c-.056-.212-.11-.425-.175-.635-.023-.076-.093-.15-.09-.222a.412.412 0 0 1 .267-.347.42.42 0 0 1 .434.085c.218.226.428.461.653.682.117.116.203.268.4.303.312.053.615.147.923.218.096.022.198.03.324.048a.89.89 0 0 0-.048-.131c-.115-.192-.15-.432-.364-.569a.218.218 0 0 1-.054-.173.489.489 0 0 1 .198-.375c.1.054.202.105.304.152.323.148.655.278.993.387a.596.596 0 0 0 .374.139h.077c1.504.411 3.08.468 4.646.392a27.395 27.395 0 0 0 11.575 5.294c.637 2.965 3.073 5.227 6.109 5.674 3.036.446 6.033-1.017 7.518-3.67v-.013c.052-.095.105-.193.155-.294l.013-.026c.043-.09.089-.186.136-.292l.014-.03a5.4 5.4 0 0 0 .117-.291l.016-.042c.032-.083.061-.172.098-.283v-.009l.016-.048a5.02 5.02 0 0 0 .08-.277v-.014l.016-.057c.023-.086.044-.172.063-.266v-.02c0-.023.01-.044.016-.066.017-.083.031-.173.047-.254v-.033c0-.024.009-.048.012-.073.013-.08.023-.172.034-.247v-.041a.2.2 0 0 1 .01-.078c0-.08.014-.16.02-.24a27.411 27.411 0 0 0 10.034-6.167c.637.04 1.225.09 1.737.154.833.105 2.209.496 3.311.774l.105-.237c-.686-.413-1.348-.887-2.076-1.21-.62-.274-1.26-.505-1.913-.691a27.17 27.17 0 0 0 2.498-3.172.296.296 0 0 0 .016.083c.192.498.474 1.101.905 1.343 1.531.864 3.894-.173 4.465-1.816.418-1.21 0-2.237-.63-3.253-.494-.8-1.063-1.599-1.346-2.477a2.02 2.02 0 0 1-.093-.75c.098-.313.19-.628.278-.944.363-.665 1.031-1.161 1.77-1.21.658-.038.942.221.747.878-.21.714-.656 1.241-1.4 1.383-.525.1-.676.446-.51.792.232.482.555 1.037.997 1.263.287.145.952-.138 1.276-.42.796-.691 1.115-1.683 1.14-2.708.036-1.276-.656-2.208-1.776-2.593a4.233 4.233 0 0 0-1.624-.21 26.89 26.89 0 0 0 .264-2.179c1.679-.79 3.298-.596 4.623-.093a6.558 6.558 0 0 1 4.026 4.411c.525 1.887.225 3.932-.776 5.463l-.082-.051a.87.87 0 0 0-1.189.257l-1.925 2.964a.326.326 0 0 0 .102.453l.175.114.504-.78a.145.145 0 0 1 .198-.042l.241.152a.14.14 0 0 1 .044.195l-.504.78.28.172.5-.774a.145.145 0 0 1 .198-.043l.242.152a.14.14 0 0 1 .043.195l-.5.774.247.156c.154.097.36.052.458-.1l1.926-2.964a.844.844 0 0 0-.228-1.146c1.152-1.75 1.486-4.007.875-6.164a7.42 7.42 0 0 0-4.55-4.988c-1.415-.538-3.116-.776-4.879-.099.016-.376.026-.753.026-1.133v-.185l.315-.235c2.53-1.846 5.374-3.965 8.64-3.402a.85.85 0 0 0 .599 1.006l3.427.965a.34.34 0 0 0 .257-.036.329.329 0 0 0 .153-.206l.06-.204-.902-.254a.141.141 0 0 1-.098-.173l.078-.273a.144.144 0 0 1 .175-.097l.902.254.09-.316-.893-.253a.141.141 0 0 1-.099-.173l.08-.273a.144.144 0 0 1 .174-.096l.895.252.08-.278a.328.328 0 0 0-.226-.401zM30.076 54.4zm11.094 3.016a6.637 6.637 0 0 0 0-.002v.002zm1.168-1.521a8.43 8.43 0 0 1 0-.002v.002zm.273-.553l-.03.064.03-.064.012-.026.03-.074-.03.074-.012.026zm.313-.887a4.286 4.286 0 0 1-.074.25c.027-.082.051-.172.074-.25 0-.02.012-.041.018-.062l-.018.062zm.184-.944c-.009.08-.02.158-.032.236 0 .03-.01.06-.015.09 0-.03.012-.061.015-.09.013-.078.021-.158.032-.236v-.024.024zM59.484 42.01c.021.221-.4.577-.7.691-.135.052-.467-.302-.672-.518-.056-.059-.074-.185-.133-.221a26.83 26.83 0 0 0 1.078-1.884c.193.632.336 1.278.427 1.932z" fill="#000"/><path d="M39.199 9.869a.685.685 0 0 1-.174.692.706.706 0 0 1-.701.172.696.696 0 0 1-.489-.482.685.685 0 0 1 .174-.693.706.706 0 0 1 .701-.171.696.696 0 0 1 .489.482zm9.22-1.845c0 .382.313.692.7.692.387 0 .7-.31.7-.692a.696.696 0 0 0-.7-.691c-.387 0-.7.31-.7.691zM35.612 5.59a.426.426 0 0 0-.268-.107c-.432 0-.779.831-1.11 1.284.821-.173 1.75-.88 1.378-1.177zm7.078 1.9h2.276a.416.416 0 0 0 .411-.403V3.691a.416.416 0 0 0-.418-.407h-2.276a.416.416 0 0 0-.416.412v3.391a.416.416 0 0 0 .423.405V7.49zm2.1 29.088c1.545-.346 3.852-1.986 3.04-2.888a.605.605 0 0 0-.466-.213c-.898 0-2.226 1.729-2.587 3.086a.012.012 0 0 0 0 .012.012.012 0 0 0 .012.005l.002-.002zM43.145 52.29c0 .126.013.252.013.38s0 .226-.009.346v.086c0 .083-.01.173-.02.247 0 .032 0 .064-.012.095a5.07 5.07 0 0 1-.031.236c0 .03-.01.06-.016.09-.014.079-.026.157-.044.235 0 .025-.012.051-.019.077a5.422 5.422 0 0 1-.058.242c0 .021-.012.042-.017.063a4.287 4.287 0 0 1-.074.25l-.017.052a6.395 6.395 0 0 1-.09.258l-.015.038a6.363 6.363 0 0 1-.107.262l-.012.026c-.04.09-.08.173-.124.267v.015a6.61 6.61 0 0 1-1.304 1.784 6.7 6.7 0 0 1-6.62 1.601 6.589 6.589 0 0 1-4.563-5c0-.025-.009-.053-.014-.08a6.244 6.244 0 0 1-.049-.296c0-.038-.01-.078-.016-.118a5.48 5.48 0 0 1-.028-.278c0-.038 0-.076-.008-.114 0-.13-.013-.26-.013-.39 0-.129 0-.27.014-.405 0-.044 0-.087.011-.128 0-.092.017-.184.028-.275a6.182 6.182 0 0 1 .065-.406c0-.045.015-.092.026-.137.026-.12.054-.239.086-.356.012-.045.026-.088.04-.133l.075-.24c.027-.08.042-.118.065-.173.023-.056.044-.118.068-.173.025-.055.053-.128.08-.19l.067-.144a6.53 6.53 0 0 1 .408-.733l.037-.059c.05-.077.105-.153.158-.228l.045-.062c.058-.078.116-.156.175-.23l.014-.017a6.675 6.675 0 0 1 1.782-1.556l.175-.097.096-.052.19-.095.089-.043.213-.095.095-.04.192-.076.074-.027c.086-.032.175-.06.257-.087l.088-.026.206-.059.08-.02c.09-.023.182-.044.274-.063l.072-.013.227-.04.08-.012c.097-.014.193-.026.291-.037h.048l.257-.019h.788l.14.01h.078l.097.01.252.03h.05c.099.016.195.033.291.052l.091.02.203.046.104.026.203.057.084.024.082.028.084.028.098.032.096.037.175.067.116.049.154.069.112.052c.078.038.156.077.233.117l.117.066.128.072.13.078.106.068.133.088.082.059c.09.063.179.129.266.197l.065.05.144.117.063.054.145.128.028.026c.164.152.32.312.467.48l.027.03a6.607 6.607 0 0 1 .565.757 7.05 7.05 0 0 1 .264.45 6.29 6.29 0 0 1 .33.714 6.15 6.15 0 0 1 .32 1.112l.012.068c.018.098.033.196.047.296 0 .032 0 .065.013.098.01.093.019.188.026.284.002.062.005.095.007.13l.003-.004zm-4.083-.192l-3.608-2.049a.61.61 0 0 0-.609.008.595.595 0 0 0-.293.527v4.096a.617.617 0 0 0 .292.53.634.634 0 0 0 .61.034l3.608-2.048a.638.638 0 0 0-.002-1.095l.002-.003zM13.74 28.58a.012.012 0 0 0-.012.007.012.012 0 0 0 .001.012c.38.681.886.844 1.43.844.256-.006.51-.029.764-.067.004 0 .009-.004.01-.01l.06-.255a.012.012 0 0 0-.01-.014l-2.243-.517zm10.807 10.963c.086.438.39.706.739.706a.849.849 0 0 0 .567-.242 4.68 4.68 0 0 0 .984-1.383 5.136 5.136 0 0 0 .597-2.215c.019-.672.85-1.324 1.327-1.984l-.153-.25c-.43.056-.887.05-1.278.203-1.617.64-3.115 3.478-2.783 5.164v.001zm51.444-15.84l-.08.28-.895-.253a.144.144 0 0 0-.175.097l-.08.273a.142.142 0 0 0 .099.173l.894.252-.09.316-.902-.254a.144.144 0 0 0-.175.097l-.079.273a.142.142 0 0 0 .098.173l.902.254-.062.199a.333.333 0 0 1-.41.225l-3.427-.965a.85.85 0 0 1-.598-1.006c-3.276-.555-6.11 1.556-8.634 3.438l-.317.235v.185c0 .38-.01.76-.026 1.136 1.763-.678 3.464-.44 4.879.097a7.419 7.419 0 0 1 4.551 4.989c.602 2.155.268 4.415-.875 6.162a.844.844 0 0 1 .227 1.148l-1.925 2.965a.335.335 0 0 1-.459.1l-.247-.156.5-.774a.14.14 0 0 0-.043-.195l-.241-.152a.145.145 0 0 0-.198.043l-.5.774-.28-.173.503-.78a.14.14 0 0 0-.044-.195l-.241-.152a.145.145 0 0 0-.198.043l-.504.78-.175-.114a.326.326 0 0 1-.102-.453l1.926-2.965a.87.87 0 0 1 1.188-.257l.083.052c1.001-1.532 1.302-3.575.775-5.464a6.559 6.559 0 0 0-4.026-4.412c-1.327-.505-2.944-.691-4.625.095-.012.147-.022.292-.036.437h.049a5.986 5.986 0 0 1 1.925.315c1.88.634 3.014 2.27 2.96 4.268-.044 1.634-.642 3.001-1.73 3.955a3.724 3.724 0 0 1-.747.5 4.742 4.742 0 0 1 .156 3.5c-.658 1.902-2.69 3.285-4.838 3.297l.196.12a1.717 1.717 0 0 1 .7 2.153l-.05.12-.052.119a1.757 1.757 0 0 1-2.062.99l-.787-.204a23.64 23.64 0 0 0-2.315-.532c-.814-.104-1.958-.173-3.38-.223a27.416 27.416 0 0 1-8.138 4.518v-.128c0-.124.01-.25.01-.375 0-.124 0-.268-.012-.42v-.11c0-.113-.017-.215-.03-.313 0-.038-.008-.073-.013-.11a6.682 6.682 0 0 0-.051-.326v-.019l-.01-.057a6.3 6.3 0 0 0-.083-.373v-.033a7.161 7.161 0 0 0-.912-2.1l-.009-.014a7.328 7.328 0 0 0-.462-.64 5.938 5.938 0 0 0-.16-.188l-.018-.023v-.008c-.051-.06-.105-.115-.158-.173a2.881 2.881 0 0 0 1.588-.974c.241-.299.539-.755.397-1.14a.256.256 0 0 0-.234-.156h-.034c-.635.095-.943.29-1.24.29a.757.757 0 0 1-.449-.162c-.565-.394-1.16-.826-1.547-1.383-1.388-1.974-2.696-4.004-4-5.962a.012.012 0 0 1 0-.016c1.672-1.383 3.15-2.593 4.604-3.82.649-.551.56-1.21.117-1.851a1.678 1.678 0 0 0-2.052-.607.012.012 0 0 0 0 .014c.324 1.227-1.286 3.22-3.5 4.254a.012.012 0 0 1-.01-.005.012.012 0 0 1-.003-.01c.058-.263.088-.47.149-.664.761-2.438 1.808-4.728 3.599-6.616.525-.555.367-.939-.203-1.324-.71-.48-1.257-.73-1.742-.73-.672 0-1.225.481-1.91 1.496-.147.216-.283.44-.408.67-1.531 2.825-2.501 5.848-3.105 8.98-.23 1.192-.875 2.039-1.76 2.767-.181.155-.407.25-.647.273a.398.398 0 0 1-.215-.057c-.254-.161-.25-.635-.158-.865.327-.886.728-1.744 1.2-2.565.679-1.127.73-1.101-.417-1.798a.012.012 0 0 1 0-.015 5.48 5.48 0 0 0 .297-.692c.235-.817.389-1.652-.254-2.363a1.994 1.994 0 0 0-1.554-.646c-.24.002-.478.027-.712.074-2.693.519-5.448 3.193-5.907 5.869a4.185 4.185 0 0 1-1.386 2.498c-.27.242-.68.603-1.05.603a.5.5 0 0 1-.223-.05c-.418-.204-.295-1.556-.273-1.672a14.386 14.386 0 0 1 2.276-5.359c.137-.197.175-.632.038-.812a2.697 2.697 0 0 0-2.165-1.05 2.333 2.333 0 0 0-1.47.488 11.014 11.014 0 0 0-1.926 2.092c-.588.804-1.06 1.692-1.575 2.551l-.298-.15c.462-1.008.884-2.038 1.432-3 .33-.58.287-.933-.205-1.327-.586-.47-1.08-.709-1.575-.709-.496 0-.97.234-1.539.707-.43.345-.814.743-1.143 1.183-.887 1.246-1.726 2.525-2.654 3.896a.012.012 0 0 1-.01 0 .012.012 0 0 1-.01-.004.012.012 0 0 1-.002-.01A8.43 8.43 0 0 1 9.7 34.227c.473-.598.35-.978-.217-1.338a7.188 7.188 0 0 0-.907-.498 2.321 2.321 0 0 0-.875-.262c-.359 0-.598.235-.903.786-1.4 2.552-2.081 5.29-1.812 8.194.142 1.518 1.374 2.645 2.643 2.645.13 0 .259-.012.386-.035a.01.01 0 0 0 .01-.01c.233-2.939 1.588-5.452 3.172-7.87.037.17.032.349-.014.518-.35 1.625-.783 3.243-.432 4.925.302 1.457 1.4 2.47 2.664 2.47.106 0 .212-.007.317-.02a.014.014 0 0 0 .01-.013c.107-2.712 1.289-5.056 2.713-7.312a1.4 1.4 0 0 1-.024.508c-.203 1.615-.545 3.228-.57 4.84-.029 1.653.827 2.624 2.082 2.624a3.184 3.184 0 0 0 1.236-.274c.755-.32 1.4-.913 2.06-1.413.232-.21.44-.44.625-.691a.012.012 0 0 1 .01 0 .012.012 0 0 1 .01 0c.525.838 1.04 1.703 1.871 1.703a1.44 1.44 0 0 0 .464-.083c.842-.29 1.486-1.138 2.216-1.746a.01.01 0 0 1 .009.002.01.01 0 0 1 .003.008c0 .092.016.24.025.389.066 1.35.63 2.088 1.6 2.088.41-.014.814-.111 1.185-.285.935-.405 1.75-1.093 2.468-1.556.7.546 1.4 1.165 2.167 1.68a.65.65 0 0 0 .35.128c.208 0 .34-.186.31-.594-.06-.833-.067-1.67-.021-2.503.035-.692.175-1.371.266-2.056a.012.012 0 0 1 .012-.01c.198.193.346.43.433.691.758 1.729 1.425 3.515 2.317 5.176.1.182.21.359.33.529-.093-.017-.176-.033-.268-.047h-.056a5.558 5.558 0 0 0-.279-.034l-.094-.009h-.012l-.244-.02h-.868c-.095 0-.19.013-.284.022h-.05a9.09 9.09 0 0 0-.321.04l-.069.01h-.019l-.252.045h-.023l-.056.01c-.101.02-.203.045-.304.07l-.063.017h-.025l-.175.048c-1.94.128-3.88.258-5.819.363-4.218.23-8.44.427-12.663.562h-.175c-.915 0-1.847-.215-2.75-.408-1.4-.3-2.431-1.15-3.184-2.323a.012.012 0 0 0-.01 0c-.83.64-1.05 1.57-.386 2.364a6.66 6.66 0 0 0 2.213 1.719c1.575.724 3.258.943 4.957.943.46 0 .923-.015 1.383-.043 3.955-.228 7.902-.569 11.853-.864l1.101-.081a7.163 7.163 0 0 0-1.63 6.256 27.393 27.393 0 0 1-9.31-3.698c-.639.043-1.276.082-1.912.12-.525.03-1.019.046-1.486.046-2.22 0-4.084-.361-5.698-1.106a8.227 8.227 0 0 1-2.276-1.592.388.388 0 0 0-.028.124c0 .07.067.145.09.221.06.211.115.426.175.636l-.044.03c-.1-.042-.203-.076-.298-.125-.27-.14-.525-.293-.805-.427a.665.665 0 0 1-.278-.314c-.175-.3-.326-.604-.49-.903a.412.412 0 0 0-.751.028.3.3 0 0 0 0 .195c.087.248-.014.486 0 .73l-.037.015c-.091-.072-.186-.141-.272-.22a61.382 61.382 0 0 1-.7-.66.369.369 0 0 1-.094-.164c-.092-.358-.18-.718-.265-1.078a.488.488 0 0 0-.35-.408.368.368 0 0 0-.324.076.357.357 0 0 0-.126.304 2.034 2.034 0 0 1-.187.66l-.038.014c-.06-.08-.126-.154-.175-.237-.165-.257-.32-.518-.489-.776a.877.877 0 0 1-.084-.543c0-.312.023-.625.025-.938a.404.404 0 0 0-.168-.35.416.416 0 0 0-.389-.053.266.266 0 0 0-.212.226c-.037.261-.236.427-.388.67-.05-.12-.09-.201-.116-.288-.1-.323-.198-.646-.285-.973a.488.488 0 0 1 .01-.249c.109-.378.23-.755.34-1.134a.394.394 0 0 0-.114-.404.367.367 0 0 0-.422-.083.312.312 0 0 0-.163.135.776.776 0 0 1-.308.345c-.075.054-.149.11-.247.182-.015-.112-.036-.206-.04-.3-.01-.31 0-.62-.023-.927a.541.541 0 0 1 .098-.332c.198-.31.394-.62.587-.934a.41.41 0 0 0 .053-.375.418.418 0 0 0-.277-.26.307.307 0 0 0-.35.092 1.095 1.095 0 0 1-.254.185c-.12.066-.252.113-.378.173L0 39.532l.063-.262c.072-.301.15-.6.21-.903.042-.218.21-.333.35-.47.228-.218.464-.427.7-.643a.387.387 0 0 0 .072-.41.41.41 0 0 0-.371-.259.16.16 0 0 0-.103.033c-.22.183-.503.131-.784.202.02-.066.045-.13.073-.194.175-.333.35-.668.555-.993.047-.078.161-.115.243-.173a.341.341 0 0 1 .434 0c.337.22.688.415 1.035.619l1.024.608c.042-.198.089-.396.14-.595l-1.45-1c-.1-.07-.155-.118-.068-.258a.396.396 0 0 0-.047-.49.264.264 0 0 0-.304-.108.966.966 0 0 1-.475.024l-.338-.033c.084-.105.144-.197.22-.273.213-.22.428-.44.656-.645a.746.746 0 0 1 .308-.157c.334-.085.675-.142 1.01-.23a.712.712 0 0 0 .306-.185.325.325 0 0 0 .035-.389.314.314 0 0 0-.33-.19c-.255.014-.452-.14-.684-.197l-.008-.038c.049-.041.1-.08.154-.116.29-.173.584-.332.875-.51a.617.617 0 0 1 .378-.07c.35.013.7.027 1.06.039a.398.398 0 0 0 .407-.242.329.329 0 0 0-.067-.394.406.406 0 0 0-.175-.094c-.236-.062-.388-.245-.59-.356v-.046c.097-.033.193-.071.293-.1.264-.077.525-.144.796-.225a.655.655 0 0 1 .41 0c.364.116.732.223 1.1.328a.353.353 0 0 0 .35-.088 21.147 21.147 0 0 1-.044-.565.945.945 0 0 1-.322-.305c-.055-.074-.113-.146-.176-.242.116-.008.216-.022.316-.024h.159a26.756 26.756 0 0 1 .737-7.571 5.187 5.187 0 0 1-.875-.586 4.305 4.305 0 0 1-1.632-3.094 7.075 7.075 0 0 1 .537-3.21c.92-2.006 2.673-3.831 4.94-5.117A14.668 14.668 0 0 1 16.53 7.52a27.429 27.429 0 0 1 4.308-3.1 3.143 3.143 0 0 1 .198-1.199c.399-1.117 1.248-1.89 2.522-2.3a10.046 10.046 0 0 1 3.1-.412c.324 0 .643 0 .95.014h.073c.486.01.976.026 1.45.041.715.023 1.454.045 2.171.054h.01c.065-.002.131-.008.197-.017A1.76 1.76 0 0 1 32.839 0h.098a2.45 2.45 0 0 1 1.623.691h.147c1.187.001 2.373.078 3.55.23v3.764a1.125 1.125 0 0 0-.867 1.223c.067.567.552.994 1.13.994.577 0 1.063-.427 1.13-.994a1.125 1.125 0 0 0-.868-1.223V.994c1.099.161 2.186.389 3.256.681a.873.873 0 0 1 .85-.657h.277a.897.897 0 0 0 .279 0h.278a.897.897 0 0 0 .278 0h.279a.897.897 0 0 0 .278 0h.278a.87.87 0 0 1 .876.864v.244c.297.143.547.364.724.64h.438a.87.87 0 0 1 .875.864v.33a27.442 27.442 0 0 1 5.413 3.812h-2.932a1.137 1.137 0 0 0-1.24-.857 1.129 1.129 0 0 0-1.005 1.116c0 .57.432 1.05 1.005 1.116a1.137 1.137 0 0 0 1.24-.856h3.487c.508.486.999.99 1.47 1.514h-15.56a1.137 1.137 0 0 0-1.24-.857 1.129 1.129 0 0 0-1.005 1.116c0 .57.432 1.05 1.006 1.116a1.137 1.137 0 0 0 1.239-.857h16.013l.065.077.718-.033.103-.173c.156-.265.319-.54.492-.814.788-1.255 1.856-1.428 2.423-1.428.556.01 1.1.166 1.575.453.05.027.123.065.2.103.128.064.273.137.432.23.576.346 1.446.856 1.682 1.872.032.136.05.274.056.414.334.125.66.266.979.425.835.415 2.025 1.148 2.732 2.717.786 1.743.463 3.502-.842 4.592a1.78 1.78 0 0 1-1.582.356 1.755 1.755 0 0 1-1.206-1.072c-.364-.954-.907-1.46-1.819-1.69h-.01a12.58 12.58 0 0 0-.744-.174 6.106 6.106 0 0 0-.091.218c-.203.507-.403 1.02-.6 1.533.064.163.127.327.188.491a2.067 2.067 0 0 1 1.318.08c1.165.475 1.536 1.8 1.303 2.863-.172.77-.43 1.518-.772 2.231-.124.261-.257.519-.394.76.088.69.147 1.408.175 2.124 2.531-1.885 5.616-4.104 9.216-3.458l.027-.091a.865.865 0 0 1 1.062-.585l3.428.965c.174.046.28.22.238.394v.002zM40.846 7.195h.972a.872.872 0 0 0 .875.756h.194v.985h.278v-.983h.279v.985h.278v-.985H44v.985h.279v-.985h.278v.985h.278v-.985h.125a.872.872 0 0 0 .875-.756h1.05v-.281h-1.034v-.27h1.034V6.37h-1.034v-.275h1.034V5.82h-1.034v-.275h1.034v-.274h-1.034v-.275h1.034V4.72h-1.034v-.275h1.034V4.17h-1.034v-.273h1.034V3.63h-1.038a.87.87 0 0 0-.875-.802h-.124v-.946h-.279v.94h-.278v-.94h-.278v.94h-.279v-.94h-.278v.94h-.278v-.94h-.29v.94h-.197a.87.87 0 0 0-.875.801h-.966v.275h.962v.275h-.962v.275h.962v.275h-.962v.273h.962v.275h-.962v.274h.962v.275h-.962v.275h.962v.275h-.962v.275h.962v.27h-.962l-.004.28zM32.353 11.1a1.262 1.262 0 0 0-.175.209c.392.403.74.849 1.15 1.161 1.524 1.167 3.22 1.714 4.98 1.902 1.85.2 3.71.3 5.572.302 3.126 0 5.797-.28 9.95-.345.796-.014 1.592-.018 2.389-.02a.015.015 0 0 1 .009.006.012.012 0 0 1 .001.01c-.1.235-.204.495-.318.785-.471 1.433-1.012 2.847-1.4 4.303-.489 1.846-1.037 3.699-.634 5.661.297 1.455 1.006 2.223 1.97 2.223.549 0 1.179-.247 1.863-.755a9.68 9.68 0 0 0 2.943-3.691 8.72 8.72 0 0 0 .646-1.862c.06-.268.035-.778-.261-.899a.269.269 0 0 0-.103-.02c-.217 0-.438.247-.6.399a9.544 9.544 0 0 0-.711.864c-.667.797-1.322 1.606-2.024 2.372a.997.997 0 0 1-.616.273.274.274 0 0 1-.117-.022c-.193-.092-.3-.452-.35-.714a1.31 1.31 0 0 1 .087-.675c.844-2.278 1.666-4.567 2.57-6.823.2-.482.434-.95.7-1.401a.012.012 0 0 1 .01 0h.338a8.4 8.4 0 0 1 1.863.326c1.316.334 2.405 1.134 3.023 2.756a.012.012 0 0 0 .012 0c.71-.591.833-1.556.375-2.569-.438-.972-1.149-1.492-1.926-1.876a9.054 9.054 0 0 0-2.296-.77l-.08-.186c.659-.997.615-1.182-.454-1.815-.2-.117-.415-.207-.616-.323a1.413 1.413 0 0 0-.7-.216c-.367 0-.682.207-.937.614-.366.579-.7 1.184-1.07 1.754a.012.012 0 0 1-.01 0c-3.825.156-7.65.415-11.473.519-2.87.085-3.585.232-5.544.232-.525 0-1.132-.01-1.894-.035-2.099-.054-4.23-.339-6.142-1.654zm-8.928-6.06c-.164-.518-.094-.715.378-.993a2.09 2.09 0 0 1 .581-.263c.7-.157 1.413-.316 2.129-.415.525-.07 1.05-.048 1.624-.069-.164.308-.299.541-.414.781a21.627 21.627 0 0 0-1.537 4.771 2.634 2.634 0 0 0 .084 1.63c.189.438.677.951 1.066.951a.39.39 0 0 0 .31-.148c.057-.068 0-.184-.013-.27a5.82 5.82 0 0 1 .137-2.998c.4-1.367.926-2.698 1.4-4.046.063-.173.11-.365.175-.562l.548.038-.143.313c-.35.745-.71 1.481-1.02 2.247-.332.816-.617 1.653-.594 2.552a.843.843 0 0 0 .69.83c.042.01.085.016.129.017.13 0 .194-.075.226-.263.072-.487.176-.968.311-1.442a4.625 4.625 0 0 1 1.03-1.901c.12-.128.381-.355.56-.355.075 0 .136.042.166.15.079.296-.383.884-.58 1.318-.251.56-.472 1.125-.461 1.753.01.627.35 1.016.854 1.016.165-.003.327-.037.48-.1a5.2 5.2 0 0 0 .843-.519c.084-.053.158-.12.252-.195l.125.249c.273.498.675.767 1.155.767.191-.002.38-.04.558-.112 1.05-.404 1.724-1.184 2.167-2.18a.513.513 0 0 0 .037-.276.319.319 0 0 0-.122-.225.324.324 0 0 0-.233.09c-.242.26-.434.572-.7.792a2.893 2.893 0 0 1-1 .561 1.015 1.015 0 0 1-.263.038c-.39 0-.563-.306-.458-.797a3.154 3.154 0 0 0 1.925-.978c.436-.453.554-1.072.298-1.443a.964.964 0 0 0-.823-.386 1.698 1.698 0 0 0-.674.15 3.337 3.337 0 0 0-1.925 2.14c-.144.464-.454.76-.797 1.046a.377.377 0 0 1-.212.09.125.125 0 0 1-.073-.02c-.08-.056-.063-.208-.033-.29.131-.345.31-.69.429-1.036a8.06 8.06 0 0 0 .413-1.475.7.7 0 0 0-.168-.595.719.719 0 0 0-.578-.236 1.03 1.03 0 0 0-.214.022c-.297.08-.59.179-.875.294.175-.327.35-.626.492-.942.215-.49.7-.558 1.05-.558.132 0 .24.01.3.01h.024c.553-.055.833-.322.907-.864.02-.153.031-.305.037-.458.012-.346-.13-.481-.541-.504.077.346-.175.43-.419.474-.362.08-.73.127-1.1.142h-.029c-1.214-.014-2.43-.068-3.644-.095-.328 0-.655-.016-.982-.016a8.22 8.22 0 0 0-2.558.325c-.675.194-1.2.55-1.44 1.222-.268.747.008 1.236.738 1.247h-.005zm3.27 24.72a.012.012 0 0 0-.012-.012 4.92 4.92 0 0 1-1.254.173c-1.517 0-2.753-.728-3.998-1.305a.012.012 0 0 1 0-.02c.942-1.081 1.907-2.042 2.694-3.13a15.176 15.176 0 0 0 2.815-7.044c.562-4.299-3.116-7.983-6.37-8.932a8.928 8.928 0 0 0-2.498-.345c-4.114 0-8.693 2.47-10.31 6.013a5.393 5.393 0 0 0-.4 2.42c.07 1.456 1.629 2.614 2.985 2.614.271.003.54-.048.791-.15a.012.012 0 0 0 0-.014c-.141-.864-.476-1.661-.35-2.373.513-2.827 2.358-4.71 4.902-5.878a6.34 6.34 0 0 1 2.625-.64c2.101 0 3.706 1.384 4.448 3.93.7 2.42.196 4.71-.679 6.97-.74 1.901-1.685 3.7-3.065 5.225h-.009c-1.344-.532-2.625-1.274-4.026-1.274a3.863 3.863 0 0 0-1.68.388.012.012 0 0 1-.012-.01 1.79 1.79 0 0 1-.037-.324c.009-.143.031-.285.066-.424.62-2.592 1.765-4.945 3.552-6.914.832-.92 1.945-1.603 2.976-2.318.35-.237.845-.244 1.278-.346l.06-.327c-.407-.273-.787-.62-1.235-.776a4.205 4.205 0 0 0-1.4-.24 5.968 5.968 0 0 0-2.561.664c-4.222 2.014-6.235 8.019-5.65 11.775.348 2.078 1.807 3.326 3.987 3.461.218.013.437.019.658.019a12.935 12.935 0 0 0 2.45-.245c.178-.036.359-.055.54-.056.386.005.764.102 1.104.282 1.324.648 2.635 1.367 4.027 1.808.305.099.625.15.947.152 1.143 0 2.065-.703 2.52-1.844.12-.27.09-.59.126-.947l-.005-.006zm14.855-2.447a3.182 3.182 0 0 0 1.442-.365c1.112-.562 2.122-1.402 3.018-2.277.725-.705 1.215-1.644 1.913-2.63a.012.012 0 0 1 .021 0c.37.864.785 1.615.984 2.42.08.323-.094 1.016-.506 1.149a.186.186 0 0 1-.058.008c-.278 0-.505-.634-.933-.634a.471.471 0 0 0-.14.023c-.162.05-.44.539-.35.75.2.49.525 1.084.961 1.305.386.19.812.288 1.243.283 1.521 0 3.107-1.113 3.263-2.608.082-.794-.247-1.679-.57-2.448-.309-.731-.91-1.334-1.28-2.048-.783-1.518.035-3.41 1.542-3.63.058-.009.116-.013.175-.013.26 0 .562.07.68.217.15.269.15.595 0 .864-.368.448-.806.944-1.324 1.139-.518.195-.672.532-.506.889.214.461.548 1.002.973 1.187.067.027.138.04.21.038a1.93 1.93 0 0 0 1.075-.444c.8-.692 1.12-1.68 1.152-2.705.042-1.332-.725-2.32-1.926-2.657-.393-.113-.8-.17-1.21-.173-2.44 0-4.603 1.996-4.466 4.54.047.865-.221 1.46-.7 2.075-.804 1.037-1.636 2.038-3.027 2.33a2.966 2.966 0 0 1-.606.07c-.949 0-1.381-.624-1.243-1.845a.01.01 0 0 1 .01-.01 7.733 7.733 0 0 0 4.571-2.766c.94-1.14 1.11-2.655.45-3.504-.417-.536-1.097-.823-1.878-.823a3.89 3.89 0 0 0-1.735.438c-2.312 1.16-3.795 3.04-4.42 5.491-.283 1.112-.92 1.902-1.69 2.637-.207.198-.58.444-.904.444a.515.515 0 0 1-.245-.057c-.368-.197-.371-.818-.315-1.19a13.782 13.782 0 0 1 2.037-5.358c.692-1.09.66-1.267-.469-1.881-.558-.303-.96-.472-1.285-.472-.472 0-.78.356-1.17 1.17-.566 1.184-.906 2.47-1.427 3.677a12.597 12.597 0 0 1-1.4 2.543c-.218.292-.701.691-1.132.691a.571.571 0 0 1-.259-.058c-.443-.222-.436-1.025-.3-1.418a30.556 30.556 0 0 1 1.818-4.339c.378-.71.543-1.148-.175-1.664-.564-.407-.968-.623-1.304-.623-.336 0-.576.19-.851.593-1.801 2.652-2.89 5.523-2.676 8.749.064.961.428 1.863 1.472 2.263.222.088.46.134.7.135.677 0 1.237-.4 1.75-.865.509-.514.988-1.054 1.438-1.62.152-.172.287-.37.516-.669a.012.012 0 0 1 .009 0c.006 0 .012.006.012.013.02.442.026.719.047.995.131 1.729.875 2.652 2.01 2.652.525 0 1.117-.194 1.773-.59a6.56 6.56 0 0 0 .867-.632c.427-.365.847-.74 1.267-1.108a.012.012 0 0 1 .01 0c.109.2.23.456.38.691.669 1.043 1.628 1.655 2.69 1.655zM58.992 47.71c-.687-.414-1.348-.887-2.076-1.21-2.276-.998-4.702-1.338-7.156-1.366-2.253-.024-3.501-.095-4.29-.095h-.32a.01.01 0 0 0-.01 0c-.035.12-.478 1.632-.721 1.85a.012.012 0 0 0 0 .018h.026c.334 0 1.989-.038 4.01-.038 2.385 0 5.278.054 7.113.286.833.105 2.209.496 3.312.774l.112-.22zm-1.44-10.817c.23 1.16-.108 1.835-.736 2.593-.32.41-.665.799-1.033 1.167-.224.211-.54.325-1.012.591a.012.012 0 0 1-.01-.004.012.012 0 0 1-.002-.01 9.78 9.78 0 0 1 .24-1.107c.427-1.188.917-2.353 1.3-3.555a7.752 7.752 0 0 0 .436-2.259c.009-1.27-.716-2.026-1.701-2.026-.4.01-.791.114-1.142.304-.236.121-.48.223-.771.356a.012.012 0 0 1-.013-.012c0-.504.112-.945-.031-1.284-.144-.339-.5-.804-.85-.899a1.885 1.885 0 0 0-.496-.067c-.806 0-1.548.518-1.94 1.31-.562 1.127-.492 2.02.35 2.735.398.345.338.593.149.949-.537 1.016-1 2.074-1.623 3.042-.7 1.079-1.605 1.981-2.965 2.247a2.85 2.85 0 0 1-.544.06c-.983 0-1.446-.665-1.236-1.854a.01.01 0 0 1 .01-.01 7.671 7.671 0 0 0 4.518-2.718c.982-1.179 1.152-2.71.452-3.57a2.319 2.319 0 0 0-1.847-.795 3.92 3.92 0 0 0-1.773.46c-2.327 1.193-3.79 3.093-4.422 5.59-.36 1.423-.33 2.851.35 4.2.64 1.277 1.702 2.003 2.9 2.003a3.473 3.473 0 0 0 1.616-.425c1.05-.553 2.133-1.302 2.827-2.234 1.284-1.74 2.351-3.673 3.437-5.566.675-1.17.766-1.341 2.151-1.877.004 0 .008.001.01.005a.012.012 0 0 1 .002.01c-.226.597-.44 1.143-.637 1.696-.651 1.834-1.348 3.656-1.915 5.515-.275.897.039 1.778.769 2.42.326.3.755.466 1.2.466a2.3 2.3 0 0 0 1.093-.299 9.054 9.054 0 0 0 2.23-1.609c.74-.771 1.295-1.715 2.058-2.766a.012.012 0 0 1 .021 0c.196.81.433 1.527.501 2.26.021.22-.4.577-.7.691a.082.082 0 0 1-.03 0c-.149 0-.452-.322-.642-.519-.067-.069-.077-.233-.175-.233-.33.024-.508.647-.431.845.193.498.474 1.101.905 1.343.384.21.817.316 1.255.31 1.341 0 2.782-.885 3.21-2.126.419-1.21 0-2.237-.63-3.254-.493-.8-1.062-1.599-1.346-2.477-.432-1.343.653-2.823 1.956-2.897h.12c.571 0 .809.266.627.882-.21.714-.656 1.24-1.4 1.383-.526.1-.676.446-.51.791.231.483.555 1.037.996 1.264a.437.437 0 0 0 .196.04c.4-.041.776-.201 1.08-.46.797-.692 1.115-1.684 1.142-2.709.035-1.276-.657-2.207-1.777-2.593a4.22 4.22 0 0 0-1.353-.221c-2.549.017-4.93 2.306-4.415 4.9l.002.007zM37.812 5.777c0 .382.313.692.7.692.387 0 .7-.31.7-.692a.696.696 0 0 0-.7-.691c-.387 0-.7.31-.7.691zm4.448 13.774c1.552-.346 3.85-1.998 3.033-2.892a.607.607 0 0 0-.465-.211c-.904 0-2.236 1.75-2.584 3.09a.012.012 0 0 0 .004.014c.005.003.01.003.015-.001h-.003z" fill="#FFA922"/></g></svg>