<svg width="719" height="101" viewBox="0 0 719 101" xmlns="http://www.w3.org/2000/svg"><title>We Create Quests</title><path d="M526.636 40.002c1.16-.57 2-1 2.73-1.36 5.09-2.64 9.62-.11 9.7 5.75a25.66 25.66 0 0 1-1.45 7.85c-1.31 4.17-3 8.21-4.47 12.34a23.61 23.61 0 0 0-.68 3.35l.66.51c1.09-.74 2.51-1.26 3.22-2.27 2.32-3.3 4.37-6.79 6.55-10.2 2.4-3.74 4.69-7.56 7.29-11.15a21.28 21.28 0 0 1 5.42-5.82c8.14-5.12 16.22-1.25 17 8.35.41 4.73-.44 9.57-.73 14.54a71.61 71.61 0 0 0 5.17-5.65c3.51-4.67 6.81-9.5 10.2-14.26 2.46-3.46 9.11-6.14 13.11-5 4.83 1.38 6.88 5.27 7.65 9.79a29.28 29.28 0 0 1 .06 7.7 74.59 74.59 0 0 1-1.62 7.78c3.34-2.51 6-4.9 7.14-8.73a102 102 0 0 1 4.29-12.35c2.16-4.78 3.73-5.07 8.39-2.53 3.92 2.13 3.86 2.67 1.64 6.52-2.09 3.64-3.65 7.57-5.44 11.38l1 .47c1.71-2.84 3.22-5.84 5.19-8.49a67.51 67.51 0 0 1 8.15-9.48c3.39-3.11 7.95-2.41 10.69 1.29.55.74.37 2.38 0 3.38-.81 2-2.17 3.81-3 5.82a25.57 25.57 0 0 0-1.71 7.27 63 63 0 0 1 3.28-6c2.54-3.68 4.89-7.61 8-10.71 4.65-4.57 7.66-4 13.49.2 1.29.94 1.29 2 .32 3.31a48.47 48.47 0 0 0-7.88 18.59c-.06.29-.25.6-.19.87.34 1.67.73 3.33 1.11 5a30.08 30.08 0 0 0 4.8-2.24c1.046-.93 1.958-2 2.71-3.18 2.13-2.63 3.6-4.93 2.48-9-1.45-5.34 1.09-10.24 5.57-13.64a15 15 0 0 1 15.29-2.17 7.71 7.71 0 0 1 4.83 8.5c-.39 3.18-2 6.36-3.71 9.16-.68 1.11-3.29 1.94-4.59 1.53-1.3-.41-2.47-2.39-3.16-3.91-.58-1.28-.27-2.65 1.73-3 2.7-.53 4.22-2.5 4.9-5.09.49-1.88-.24-2.82-2.24-2.85-4.67-.07-8.76 5.33-7.19 10.21.95 3 2.85 5.64 4.5 8.33 2.14 3.5 3.74 7 2.33 11.25-1.91 5.76-9.77 9.2-15.28 6.58-3.53-1.68-4.18-5.28-1.17-7.43.22.27.45.55.69.82.52.58 1.12 1.69 1.54 1.63a3.27 3.27 0 0 0 2.25-1.44c1.52-3.3-.39-5.9-1.86-8.43a114.34 114.34 0 0 1-6.7 9.37 21.68 21.68 0 0 1-6.3 4.95c-7.11 3.67-12.69.37-12.58-7.8.09-6.49 1.27-13 1.87-18.54-3.4 3.7-7.85 15.25-9.4 25.6-4.64.6-9.57-3.24-9.85-8.91-.27-5.47.82-11 1.33-16.51a6.35 6.35 0 0 0 .06-2.1c-5.39 8.45-10.15 17.14-10.88 27.42-4.61 1-7.07-1.12-10.84-9.11a50.7 50.7 0 0 1-4.47 3.94c-1.27.9-2.9 2-4.26 1.92-3.62-.33-6.07 1.53-8.88 3.25-8.24 5.07-15.53 1.67-18.35-8.44a29.53 29.53 0 0 1-3.88 3.27c-1.59.94-3.48 2.14-5.15 2-2.89-.2-4.84 1-7 2.53a13 13 0 0 1-10.71 2.47c-4.3-.9-6.69-3.66-8.14-8.27a17.32 17.32 0 0 1-2.05 2.59 38.43 38.43 0 0 1-5.7 4.31c-2.87 1.6-6.11 2.52-9 .19a8 8 0 0 1-2.67-9.16c2.36-7.16 5-14.25 7.46-21.37l1.3-3.67c-3.44 2.13-6.18 3.49-7.8 7.05-2.49 5.46-6 10.45-9.44 16.17a9.14 9.14 0 0 1-.36-9.89c1.37-2.65 2.9-5.24 4.09-8a3.28 3.28 0 0 0-.52-2.89c-2.69-2.85-3.14-5.61-1.21-9.57a7.75 7.75 0 0 1 8.06-4.51 3.32 3.32 0 0 1 3.27 3.55c.03 1.38 0 2.68 0 4.47zm60.59 14.73l-.6-.27c-.63 3.54-1.63 7.03-1.75 10.54-.07 1.91.85 4.85 2.24 5.57 1.71.89 4.37 0 6.55-.17l-6.44-15.67zm-35.38 0l-.59-.29c-.64 3.53-1.64 7-1.78 10.6-.07 1.92.83 4.86 2.21 5.59 1.71.9 4.38 0 6.59-.14l-6.43-15.76zm47.68 7.53c1.63-5 2.75-9.43 1.47-14.07-.77-2.8-2-5.2-5.16-6-1.62-.41-2.8-.1-2.87 1.86a24.46 24.46 0 0 0 6.57 18.17l-.01.04zm-35.06.13c.67-3.67 1.52-6.57 1.64-9.5.15-3.6-.34-7.31-3.57-9.66a5.71 5.71 0 0 0-4.12-.8c-.56.12-.86 2.2-1 3.42a10.85 10.85 0 0 0 .35 3.26c1.02 4.65 2.37 9.17 6.7 13.25v.03zm-309.32-25.39c-7.85-1.47-10.85-5.5-7.94-9.92 2.11.91 4 2.09 6.13 2.55 3.52.79 6.45 0 7.64-4.06a13.16 13.16 0 0 1 1.76-3.12c3.24-5.1 7.74-5.28 11.58-.33a3.35 3.35 0 0 1 0 2.76 24.37 24.37 0 0 1-2.32 3.66c3.3 2 6.57 3.92 5.35 8.72-1-.45-1.75-.86-2.57-1.18-4.35-1.7-6.75-.95-8.43 3.27-3.08 7.74-5.87 15.6-8.73 23.43a5.17 5.17 0 0 0-.29 2.64 3.89 3.89 0 0 0 1.31 2.41c.44.28 1.77-.23 2.29-.78 3.5-3.67 7-7.3 8.78-12.28a28.27 28.27 0 0 1 14.2-16.3c5-2.52 9.92-2 12.4 1.18 2.31 2.93 1.61 8.48-1.68 12.39a26.26 26.26 0 0 1-15.52 9.31c-.57 5.35 2.07 8 6.8 6.06 3.17-1.27 6-3.78 8.54-6.16 1.87-1.72 3.07-4.16 4.69-6.19a2.32 2.32 0 0 1 1.92-.84 2.5 2.5 0 0 1 1.11 1.82 5.9 5.9 0 0 1-.35 2.62 33 33 0 0 1-14.82 18.47c-7.46 4.29-14.14 1.87-17.57-6-.23-.54-.48-1.07-.79-1.75-1.76 1.93-3.32 3.83-5.09 5.51a19.56 19.56 0 0 1-4.38 3.11c-4.83 2.51-7.89 1.32-10-3.69-.22-.53-.4-1.07-.72-1.94-1.34 1.18-2.44 2.29-3.69 3.2a23 23 0 0 1-4.34 2.61c-6.34 2.69-9.82.44-10.1-6.41 0-.47-.07-.94-.12-1.71-3 2.63-4.32 7.32-8.95 6.91-4.63-.41-5.91-4.47-7.27-8.05-1.81 1.73-3.52 3.54-5.41 5.14-9.22 7.81-15.27 7-22.25-2.87a27.67 27.67 0 0 1-2.94 2.89 41.73 41.73 0 0 1-6.46 4.23c-2.62 1.25-5.5 1.47-7.87-.7a7.78 7.78 0 0 1-2.5-8.16c2.17-7 4.76-13.9 7.18-20.83.51-1.46 1-2.92 1.7-4.78-3.72 1.81-6.2 3.74-7.95 7.25a117.27 117.27 0 0 1-11.38 18.91c-2.66 3.48-6.79 6.19-10.78 8.2-5.17 2.61-9.79.65-12.61-4.45-2.82-5.1-3-10.46-1.86-16 1.33-6.4 4-12.15 9-16.47a20.25 20.25 0 0 1 6.64-3.87c6.12-2 12 2.62 11 8.95-.53 3.26-2.45 6.43-4.33 9.25a5 5 0 0 1-4.63 1.4c-1.43-.59-2.45-2.64-3.13-4.27-.22-.52 1.12-1.82 1.92-2.59 1.73-1.67 3.66-3.15 5.29-4.9a2.45 2.45 0 0 0 0-2.42 4.38 4.38 0 0 0-2.71-.53 3.4 3.4 0 0 0-1.58.78c-5 3.42-9.51 15.32-8.07 21.17.68 2.77 2.33 4.06 5.15 3.89 5-.31 8.38-3.31 10.82-7.17 2.27-3.58 3.78-7.64 5.68-11.46.74-1.49.88-2.48-.69-3.77-2.74-2.24-2.85-5.81-.79-9.56 1.67-3 5.22-5 8.28-3.93 1.18.4 2.26 2 2.76 3.28.5 1.28.1 2.71.1 4.36 1-.47 1.84-.81 2.61-1.21 5.37-2.78 9.94-.06 9.85 6.13a26.59 26.59 0 0 1-1.53 7.54c-1.33 4.16-3 8.22-4.45 12.34a24.76 24.76 0 0 0-.68 3.18c3.28-.28 7.27-4.22 8.07-8 1.65-7.7 5.29-14.18 11.68-18.88a26.28 26.28 0 0 1 6.89-3.54c3.52-1.23 7.13-.92 9.53 2.24 2.4 3.16 1.91 6.71 0 9.86-3.4 5.74-8.58 9.34-14.94 11.26-.75.23-1.52.38-2.24.56-.57 5.32 1.94 7.66 6.84 6.15 5.83-1.8 9.61-5.93 11.48-11.65 3-9.25 9.32-15.14 18.31-18.32 3.37-1.19 6.89-1.3 9.39 1.71 2.5 3.01 1.48 6.19.18 9.33-.15.37-.36.71-.54 1.06 4 2.5 3.83 2.41 1.43 6.46a57.07 57.07 0 0 0-4 8.64c-.32.84.28 2 .46 3.06 1.09-.24 2.48-.14 3.21-.78 2.9-2.58 5.18-5.41 6.09-9.57 1.51-6.86 3.89-13.53 5.95-20.46zm-16.42 8.1l-1-1.28c-1.72.42-3.58.55-5.13 1.31-5.32 2.64-9.75 11.54-8.88 17.41.39 2.63 2.84 3.61 4.79 1.65a19.44 19.44 0 0 0 3.38-5.19c2.28-4.6 1.38-10.61 6.84-13.9zm43.06 7.64c6.29-1.67 11.19-6.52 10.69-10.37-3.95-.29-7.79 3.36-10.69 10.36v.01zm-82.77 0c6.29-1.67 11.19-6.52 10.69-10.37-3.95-.29-7.79 3.36-10.71 10.36l.02.01zm-141.1 3.26c-3.53 7.81-7.23 16.25-11.17 24.58a76.06 76.06 0 0 1-5.15 8.4c-1.29 2-3.24 2.64-5.15 1.25a110.8 110.8 0 0 1-11-9c-.9-.85-.82-3.23-.5-4.77 1.9-9.24 4.22-18.39 6-27.65 1.35-7.16 1.87-14.46-.21-21.63a18.59 18.59 0 0 0-2-4.62c-2-3.25-4-3.5-5.71-.1a134 134 0 0 0-7.81 18.61c-1.81 5.53-3.21 11.37-1.91 17.31a28.15 28.15 0 0 0 2.26 5.62 26.6 26.6 0 0 0 2 2.86c-2.33-.11-3.79.08-5.12-.27-8.91-2.34-13.39-8.25-12.28-17.32 1.47-12.07 6.77-22.33 16.93-29.4a18 18 0 0 1 9.69-3.18c8.24 0 16.85 9.51 17 17.69.28 12.35-2.29 24.33-4.6 36.35-.29 1.52-.54 3.05-.85 4.83 7.27-6.06 14.37-27.06 17.72-51.9 5.17-.41 8.71 2.06 9.25 7 .62 5.64.79 11.34 1.18 17 .47 6.86 1 13.72 1.84 20.72 1.43-4.69 2.73-9.42 4.31-14.05 4.15-12.13 8.11-24.33 12.73-36.26 1.84-4.74 5-9 8-13.25a11 11 0 0 1 9.23-4.82 8.84 8.84 0 0 1 8.35 12.27c-2-.41-4.34-1.68-5.76-1a15.18 15.18 0 0 0-5.79 5.33c-5.92 9.11-9.13 19.4-12.4 29.66-4.17 13.06-7.94 26.24-12.07 39.31-2.07 6.55-2.38 6.18-8.27 2.69-5.89-3.49-6.66-8.71-7.19-14.43-.57-6.15-1.07-12.3-1.55-17.83zm27.57 8.86c1.1-12.86 6.4-21.32 16.51-26.58 4.75-2.47 9.74-1.65 12.1 1.47 2.18 2.88 1.48 8.39-1.65 12.17a27.15 27.15 0 0 1-12.95 8.81c-1.31.41-3.22 0-2.94 2.39.28 2.39 1.05 4.61 3.68 4.68a10.59 10.59 0 0 0 6.21-1.5c2.83-2.09 5.16-4.89 7.6-7.48 1-1 1.54-2.35 2.5-3.35a8.7 8.7 0 0 1 2.36-1.28c.34.86.71 1.72 1 2.6.092.29.092.6 0 .89-3.33 9.69-9 17.38-18.94 21-4.97 1.74-9.97-.26-12.51-5.08-1.63-3.06-2.29-6.6-2.97-8.74zm13.51-11.86c7.1-2.23 11.77-7 11-11-6.12.91-7.91 6.05-11 11zm325.29-3.26c4.12 2.32 4 2.26 1.66 6.07a51 51 0 0 0-4 8.61c-.36 1 .33 2.34.54 3.53 1.08-.33 2.59-.33 3.17-1.06a62.75 62.75 0 0 0 6.82-9.64c2.72-5.18 4.7-10.74 7.32-16 .67-1.34 2.59-3 3.87-2.9 2.55.1 5.47.6 6.47 3.73a76.27 76.27 0 0 1 7-5.83c5.43-3.54 10.69-.7 10.64 5.84-.11 12.76-4.79 23.89-13 33.55-2.36 2.78-5.39 4.41-9.32 3.2-3.74-1.16-5.44-4.13-4.24-7.87 1.48-4.64 4.94-7.28 9.16-9.29a6.38 6.38 0 0 0 3-3.12c1.52-4.08 2.74-8.29 3.91-12.49a8.22 8.22 0 0 0-.25-4.52c-8.58 7.29-13.37 17-17.7 27-4.34 10.29-4.34 21.31-4.55 32.18-6.23.65-9.16-1.81-8.91-7.59.25-5.78.85-11.47 1.31-17.25a47.31 47.31 0 0 1-5.41 2.68c-5.63 2-8.9-.32-9.12-6.32v-2.53c-1.48 1.81-2.5 3.17-3.64 4.43-3.89 4.3-8.32 3.82-11-1.33a48.84 48.84 0 0 1-2.31-6.34c-1.54 1.78-2.89 3.6-4.51 5.13a41 41 0 0 1-6.24 5.1c-8.12 5.08-15.77 2-17.64-7.39-2.32-11.32 1.14-21.08 9.76-28.82a17.51 17.51 0 0 1 5.43-3 7.75 7.75 0 0 1 8.64 1.58c2.43 2.37 3.62 5.48 2.44 8.73a29.31 29.31 0 0 1-4.53 8.19c-.8 1-3.6 1.47-4.72.83-1.36-.78-2.07-2.93-2.67-4.63-.14-.4 1.2-1.4 1.93-2a61.49 61.49 0 0 0 5.15-4.62 2.89 2.89 0 0 0 0-2.86c-.61-.53-2-.22-3-.17a2.47 2.47 0 0 0-1 .57c-5 3.4-9.52 15.3-8.09 21.16.68 2.77 2.41 4.5 5.1 3.8 2.69-.7 6-1.77 7.84-3.75a60.4 60.4 0 0 0 8.74-12c4-7.05 9.39-12.09 17-14.68 3.38-1.15 6.89-1.33 9.41 1.66 2.52 2.99 1.53 6.17.25 9.32-.23.29-.45.63-.71 1.11zm-3.72-4.74l-.45-1a21.51 21.51 0 0 0-4.66.85c-5.57 2.33-10.59 12.07-9.43 18 .46 2.32 3 3.46 4.42 1.59 2.33-3.1 5.07-6.65 5.42-10.23a10.54 10.54 0 0 1 2.49-6c.78-1.13 1.48-2.21 2.21-3.21zm29.68 21.75l-.92-.84c-1.95 1.82-4 3.56-5.78 5.53-.44.48 0 1.73 0 2.62.88-.29 2.1-.32 2.57-.93 1.52-2.03 2.77-4.25 4.13-6.4v.02zm-106.97 4.66l3.85 2.13c.65-1.33 2.06-2.84 1.8-4-.66-2.84-2.07-5.5-3.48-9-.91 1.46-1.38 2.13-1.78 2.85a36.2 36.2 0 0 1-11.45 12.84c-11.61 7.77-19.55-1.05-20.22-10.12-.85-11.89 4.62-20.68 14.44-27a15.82 15.82 0 0 1 3.82-1.67c4-1.26 8-.45 9.84 2.26 2.21 3.33 1.82 7-.19 10.16a25.21 25.21 0 0 1-14.81 10.97c-.66.19-1.35.31-2 .45-1.09 4.88 1.44 7.49 6.13 6.45 4.85-1.08 7.82-4.56 10.56-8.32 1.5-2.06 2.55-3.92 2.3-6.94-.83-10.16 9.47-18 19.32-15.25 4.25 1.21 7.1 4.53 6.52 9.14-.4 3.18-2 6.36-3.73 9.16-.68 1.11-3.29 1.95-4.59 1.53-1.3-.42-2.47-2.38-3.17-3.91-.58-1.27-.28-2.66 1.72-3.05 2.7-.53 4.22-2.49 4.91-5.08.5-1.88-.22-2.82-2.23-2.86-4.66-.08-8.79 5.33-7.21 10.2 1 3 3 5.8 4.66 8.58 2.15 3.52 3.57 7.09 2.12 11.29-2 5.67-10.26 9.14-15.4 6.08-1.4-.83-2.35-2.8-2.94-4.45-.23-.72.93-1.95 1.21-2.44zm-18.17-18.58c6.68-1.71 11.63-6.59 11.11-10.9-6.15.96-7.98 6.07-11.11 10.9zm152.53 8.69c-.56 5.18 2 7.72 6.81 5.92a25.43 25.43 0 0 0 8-5.47c2.08-1.95 3.46-4.62 5.26-6.88a2.33 2.33 0 0 1 1.92-.85 2.41 2.41 0 0 1 1.12 1.81 7.21 7.21 0 0 1-.44 2.9 33.68 33.68 0 0 1-13.5 17.42c-11.33 7.53-19.33-1.06-20-10.18-.9-12 4.64-20.89 14.62-27.18a15 15 0 0 1 3.85-1.6c3.59-1 7.15-.88 9.55 2.28 2.4 3.16 1.91 6.71 0 9.86-3.4 5.74-8.58 9.34-14.94 11.26-.66.2-1.34.35-2 .53a.9.9 0 0 0-.25.18zm13.36-19.12c-4-.38-9 4.52-10.45 10.22 5.88-1.41 10.9-6.33 10.45-10.22zm214.71 24.19c-4.31.5-9.45-3.88-9.2-9.29a62 62 0 0 1 11.77-34.19c2.41-3.32 8.72-2.06 10.25 1.89a2.67 2.67 0 0 1-.49 2.05c-6.66 9.57-10.29 20.36-12.54 31.64-.5 2.51.11 5.23.21 7.9zm-1.85 14.12a6.73 6.73 0 0 1-7.56-2c-1.46-2-1.67-6.81-.12-8.75a3.64 3.64 0 0 1 2.7-1.31c1.773.223 3.5.719 5.12 1.47 1.85.82 3.06 1.84 1.5 4.3-1.06 1.58-1.06 3.81-1.64 6.29z" fill="#FFF"/></svg>