<svg width="229" height="107" viewBox="0 0 229 107" xmlns="http://www.w3.org/2000/svg"><title>We Create Quests</title><path d="M120.417 71.57c.652-.322 1.124-.566 1.535-.77 2.861-1.491 5.408-.061 5.453 3.251a14.575 14.575 0 0 1-.815 4.438c-.736 2.357-1.687 4.64-2.513 6.975a13.41 13.41 0 0 0-.382 1.894l.37.288c.614-.418 1.412-.712 1.811-1.283 1.304-1.865 2.457-3.838 3.683-5.766 1.35-2.114 2.637-4.273 4.098-6.303a12.004 12.004 0 0 1 3.048-3.29c4.576-2.894 9.12-.706 9.558 4.72.23 2.674-.248 5.41-.41 8.22a40.4 40.4 0 0 0 2.906-3.194c1.973-2.64 3.829-5.37 5.735-8.061 1.383-1.956 5.122-3.47 7.37-2.826 2.716.78 3.869 2.979 4.302 5.534a16.64 16.64 0 0 1 .033 4.352 42.365 42.365 0 0 1-.91 4.398c1.877-1.419 3.373-2.77 4.014-4.935a57.871 57.871 0 0 1 2.412-6.98c1.214-2.703 2.097-2.867 4.717-1.431 2.204 1.204 2.17 1.51.922 3.686-1.175 2.057-2.052 4.279-3.059 6.433l.563.265c.961-1.605 1.81-3.301 2.918-4.799a38.106 38.106 0 0 1 4.582-5.359c1.906-1.758 4.47-1.362 6.01.73.31.418.208 1.345 0 1.91-.455 1.13-1.22 2.154-1.687 3.29a14.52 14.52 0 0 0-.961 4.11 35.673 35.673 0 0 1 1.844-3.392c1.428-2.08 2.75-4.302 4.498-6.054 2.614-2.584 4.307-2.262 7.584.113.726.531.726 1.13.18 1.87a27.478 27.478 0 0 0-4.43 10.51c-.034.163-.14.339-.107.491.191.944.41 1.883.624 2.827a16.87 16.87 0 0 0 2.699-1.267 8.569 8.569 0 0 0 1.524-1.797c1.197-1.487 2.024-2.787 1.394-5.088-.815-3.018.613-5.788 3.132-7.71a8.397 8.397 0 0 1 8.596-1.227 4.362 4.362 0 0 1 2.716 4.805c-.22 1.798-1.125 3.595-2.086 5.178-.383.627-1.85 1.097-2.58.865-.732-.232-1.39-1.351-1.777-2.21-.327-.724-.152-1.498.972-1.696 1.518-.3 2.373-1.413 2.755-2.878.276-1.062-.135-1.594-1.26-1.61-2.625-.04-4.924 3.012-4.042 5.771.534 1.696 1.603 3.188 2.53 4.709 1.203 1.978 2.103 3.957 1.31 6.36-1.074 3.255-5.493 5.2-8.59 3.719-1.985-.95-2.35-2.985-.658-4.2.123.152.253.31.388.463.292.328.63.956.865.922a1.838 1.838 0 0 0 1.265-.814c.855-1.866-.219-3.335-1.045-4.766a64.63 64.63 0 0 1-3.767 5.297 12.2 12.2 0 0 1-3.542 2.798c-3.998 2.075-7.135.21-7.073-4.409.05-3.669.714-7.349 1.051-10.48-1.911 2.091-4.413 8.62-5.285 14.47-2.609.34-5.38-1.83-5.538-5.036-.152-3.092.461-6.218.748-9.333a3.61 3.61 0 0 0 .034-1.187c-3.03 4.777-5.707 9.69-6.117 15.5-2.592.566-3.975-.633-6.095-5.15a28.554 28.554 0 0 1-2.513 2.228c-.714.509-1.63 1.13-2.395 1.085-2.036-.186-3.413.865-4.993 1.837-4.633 2.866-8.731.944-10.317-4.77a16.625 16.625 0 0 1-2.181 1.848c-.894.531-1.957 1.21-2.896 1.13-1.625-.113-2.721.566-3.935 1.43a7.279 7.279 0 0 1-6.022 1.397c-2.417-.509-3.761-2.07-4.576-4.675a9.783 9.783 0 0 1-1.153 1.464c-.99.91-2.064 1.726-3.205 2.436-1.613.905-3.435 1.425-5.06.108a4.537 4.537 0 0 1-1.501-5.178c1.327-4.048 2.811-8.056 4.194-12.08l.731-2.075c-1.934 1.204-3.474 1.973-4.385 3.985-1.4 3.087-3.374 5.908-5.308 9.141a5.19 5.19 0 0 1-.202-5.59c.77-1.499 1.63-2.963 2.3-4.523a1.862 1.862 0 0 0-.293-1.634c-1.512-1.61-1.765-3.17-.68-5.41a4.353 4.353 0 0 1 4.531-2.549 1.862 1.862 0 0 1 1.35.605c.348.38.524.887.489 1.402.017.78 0 1.515 0 2.527zm33.906 8.583l-.337-.153c-.354 2.001-.916 3.974-.984 5.958-.04 1.08.478 2.742 1.26 3.149.96.503 2.456 0 3.682-.096l-3.62-8.858zm-19.988.01l-.332-.163c-.36 1.995-.922 3.957-1 5.992-.04 1.085.466 2.747 1.242 3.16.961.509 2.462 0 3.705-.08l-3.615-8.908zm27.377 4.272c.917-2.827 1.546-5.331.827-7.954-.433-1.583-1.125-2.94-2.901-3.392-.911-.231-1.575-.056-1.614 1.052a13.871 13.871 0 0 0 3.694 10.271l-.006.023zm-19.742-.097c.377-2.075.854-3.714.922-5.37.084-2.035-.191-4.133-2.007-5.461a3.196 3.196 0 0 0-2.317-.452c-.315.068-.483 1.243-.562 1.933a6.16 6.16 0 0 0 .197 1.843c.573 2.629 1.332 5.184 3.767 7.49v.017zm15.481-63.421c-4.413-.831-6.1-3.11-4.464-5.608 1.187.515 2.25 1.182 3.447 1.442 1.979.446 3.626 0 4.295-2.295a7.45 7.45 0 0 1 .99-1.764c1.821-2.883 4.351-2.985 6.51-.187a1.903 1.903 0 0 1 0 1.56c-.373.728-.809 1.42-1.304 2.07 1.855 1.13 3.694 2.215 3.008 4.929-.562-.255-.984-.486-1.445-.667-2.446-.961-3.795-.537-4.74 1.848-1.731 4.376-3.3 8.819-4.908 13.245-.183.475-.239.99-.163 1.492.073.53.335 1.014.737 1.363.247.158.995-.13 1.287-.441 1.968-2.075 3.936-4.127 4.936-6.942a15.955 15.955 0 0 1 7.984-9.214c2.811-1.425 5.577-1.13 6.972.667 1.299 1.656.905 4.794-.945 7.004a14.75 14.75 0 0 1-8.726 5.263c-.32 3.024 1.164 4.522 3.824 3.425 1.782-.718 3.373-2.137 4.801-3.482 1.051-.972 1.726-2.352 2.637-3.5a1.301 1.301 0 0 1 1.08-.474c.35.232.579.61.623 1.029a3.352 3.352 0 0 1-.196 1.481 18.636 18.636 0 0 1-8.333 10.44c-4.194 2.426-7.95 1.058-9.878-3.39-.13-.306-.27-.606-.444-.99-.99 1.09-1.867 2.165-2.862 3.115a10.998 10.998 0 0 1-2.463 1.758c-2.715 1.418-4.436.746-5.622-2.086-.124-.3-.225-.605-.405-1.097-.753.667-1.371 1.295-2.074 1.809a12.917 12.917 0 0 1-2.44 1.475c-3.565 1.521-5.521.25-5.679-3.623 0-.266-.04-.531-.067-.967-1.687 1.487-2.43 4.138-5.032 3.906-2.603-.231-3.323-2.526-4.088-4.55-1.017.978-1.979 2-3.041 2.905-5.184 4.415-8.586 3.957-12.51-1.622a15.597 15.597 0 0 1-1.653 1.634 23.45 23.45 0 0 1-3.632 2.39c-1.473.707-3.092.832-4.425-.395a4.412 4.412 0 0 1-1.405-4.613c1.22-3.957 2.676-7.857 4.036-11.774.287-.826.563-1.651.956-2.703-2.091 1.024-3.486 2.115-4.47 4.099a66.364 66.364 0 0 1-6.398 10.69c-1.495 1.967-3.817 3.498-6.06 4.635-2.907 1.475-5.505.367-7.09-2.516-1.586-2.883-1.687-5.913-1.046-9.044.748-3.618 2.249-6.869 5.06-9.31a11.371 11.371 0 0 1 3.733-2.188c3.441-1.13 6.747 1.48 6.185 5.059-.298 1.843-1.378 3.635-2.435 5.229a2.801 2.801 0 0 1-2.603.791c-.804-.333-1.377-1.492-1.76-2.414-.123-.293.63-1.028 1.08-1.464.973-.944 2.058-1.78 2.974-2.77.24-.424.24-.943 0-1.367a2.451 2.451 0 0 0-1.524-.3 1.92 1.92 0 0 0-.888.44c-2.811 1.934-5.347 8.661-4.537 11.968.382 1.566 1.31 2.295 2.895 2.199 2.812-.175 4.712-1.871 6.084-4.053 1.276-2.024 2.125-4.319 3.193-6.478.416-.843.495-1.402-.388-2.132-1.54-1.266-1.602-3.284-.444-5.404.94-1.695 2.935-2.826 4.655-2.221.664.226 1.271 1.13 1.552 1.854.281.723.056 1.532.056 2.465.563-.266 1.035-.458 1.468-.684 3.019-1.572 5.588-.034 5.538 3.465-.08 1.455-.37 2.89-.86 4.262-.748 2.352-1.687 4.647-2.502 6.976a13.94 13.94 0 0 0-.383 1.797c1.844-.158 4.088-2.385 4.538-4.522.927-4.353 2.974-8.016 6.566-10.673a14.746 14.746 0 0 1 3.874-2c1.98-.696 4.009-.52 5.358 1.266 1.35 1.786 1.074 3.793 0 5.573-1.911 3.245-4.824 5.28-8.4 6.365-.421.13-.854.215-1.259.317-.32 3.007 1.09 4.33 3.846 3.476 3.278-1.017 5.403-3.352 6.454-6.585 1.687-5.23 5.24-8.559 10.295-10.356 1.894-.673 3.873-.735 5.279.966 1.406 1.702.832 3.5.101 5.275-.084.209-.202.4-.303.599 2.249 1.413 2.153 1.362.804 3.651a32.343 32.343 0 0 0-2.25 4.885c-.18.474.158 1.13.26 1.73.612-.136 1.394-.08 1.804-.442 1.63-1.458 2.912-3.058 3.424-5.41.849-3.877 2.187-7.648 3.345-11.565zm-9.232 4.579l-.562-.724c-.967.238-2.013.311-2.884.74-2.991 1.493-5.482 6.524-4.993 9.842.22 1.487 1.597 2.041 2.693.933.786-.87 1.427-1.86 1.9-2.934 1.283-2.6.777-5.998 3.846-7.857zm24.21 4.318c3.537-.944 6.292-3.685 6.01-5.862-2.22-.163-4.38 1.9-6.01 5.857v.005zm-46.536 0c3.537-.944 6.292-3.685 6.01-5.862-2.22-.163-4.38 1.9-6.021 5.857l.011.005zm-79.33 1.843c-1.985 4.415-4.065 9.186-6.28 13.895a43.038 43.038 0 0 1-2.896 4.748c-.725 1.131-1.822 1.493-2.896.707a62.365 62.365 0 0 1-6.184-5.088c-.506-.48-.461-1.825-.281-2.696 1.068-5.223 2.372-10.396 3.373-15.63.76-4.048 1.051-8.174-.118-12.227a10.538 10.538 0 0 0-1.124-2.612c-1.125-1.837-2.25-1.978-3.21-.056a75.975 75.975 0 0 0-4.392 10.52c-1.017 3.126-1.805 6.427-1.074 9.785a15.963 15.963 0 0 0 1.271 3.177c.34.563.715 1.103 1.124 1.616-1.31-.062-2.13.046-2.878-.152-5.01-1.323-7.528-4.664-6.904-9.791.826-6.823 3.806-12.623 9.518-16.62a10.083 10.083 0 0 1 5.448-1.797c4.633 0 9.474 5.376 9.558 10 .158 6.981-1.287 13.753-2.586 20.548-.163.86-.304 1.724-.478 2.73 4.087-3.425 8.08-15.296 9.963-29.338 2.906-.232 4.897 1.164 5.2 3.957.349 3.188.444 6.41.664 9.61.264 3.878.562 7.756 1.034 11.713.804-2.652 1.535-5.325 2.423-7.943 2.334-6.857 4.56-13.753 7.158-20.497 1.034-2.68 2.81-5.088 4.498-7.49A6.175 6.175 0 0 1 71.683.001a4.962 4.962 0 0 1 4.223 2.185 5.02 5.02 0 0 1 .472 4.751c-1.125-.231-2.44-.95-3.239-.565a8.552 8.552 0 0 0-3.255 3.013c-3.329 5.15-5.133 10.967-6.972 16.766-2.344 7.383-4.464 14.834-6.786 22.222-1.164 3.702-1.338 3.493-4.65 1.52-3.311-1.972-3.744-4.923-4.042-8.157-.32-3.476-.602-6.953-.872-10.079zm15.5 5.009c.619-7.27 3.598-12.052 9.283-15.026 2.67-1.396 5.476-.932 6.803.831 1.225 1.628.832 4.743-.928 6.88a15.262 15.262 0 0 1-7.281 4.98c-.736.232-1.81 0-1.653 1.351.157 1.351.59 2.606 2.07 2.646a5.929 5.929 0 0 0 3.49-.848c1.592-1.182 2.902-2.764 4.273-4.229.563-.565.866-1.328 1.406-1.893a4.88 4.88 0 0 1 1.327-.724c.191.486.4.972.562 1.47a.841.841 0 0 1 0 .503c-1.872 5.478-5.06 9.825-10.648 11.871-2.795.984-5.606-.147-7.034-2.872-.916-1.73-1.288-3.73-1.67-4.94zm7.596-6.705c3.992-1.26 6.617-3.957 6.184-6.218-3.44.515-4.447 3.42-6.184 6.218zm-6.233 47.533c2.316 1.311 2.249 1.278.933 3.431a28.903 28.903 0 0 0-2.249 4.867c-.202.566.186 1.323.304 1.996.607-.187 1.456-.187 1.782-.6a35.472 35.472 0 0 0 3.835-5.449c1.529-2.928 2.642-6.07 4.115-9.044.377-.758 1.456-1.696 2.176-1.64 1.434.057 3.075.34 3.638 2.109a42.936 42.936 0 0 1 3.935-3.296c3.053-2 6.01-.395 5.982 3.302-.062 7.213-2.693 13.504-7.309 18.965-1.327 1.571-3.03 2.493-5.24 1.809-2.102-.656-3.058-2.335-2.384-4.449.833-2.623 2.778-4.115 5.15-5.251a3.598 3.598 0 0 0 1.687-1.764c.855-2.307 1.54-4.686 2.198-7.06a4.67 4.67 0 0 0-.14-2.556c-4.824 4.121-7.517 9.61-9.952 15.263-2.44 5.817-2.44 12.046-2.558 18.19-3.502.368-5.15-1.022-5.01-4.29.141-3.267.479-6.483.737-9.75a26.493 26.493 0 0 1-3.041 1.514c-3.166 1.13-5.004-.18-5.128-3.572v-1.43c-.832 1.023-1.405 1.791-2.046 2.504-2.188 2.43-4.678 2.159-6.185-.752a27.706 27.706 0 0 1-1.299-3.584c-.866 1.006-1.625 2.035-2.535 2.9a23.077 23.077 0 0 1-3.509 2.883c-4.565 2.871-8.866 1.13-9.917-4.178-1.305-6.399.64-11.916 5.487-16.291a9.83 9.83 0 0 1 3.053-1.696 4.34 4.34 0 0 1 4.858.893c1.366 1.34 2.035 3.098 1.371 4.935a16.595 16.595 0 0 1-2.547 4.63c-.45.565-2.024.83-2.653.469-.765-.441-1.164-1.656-1.501-2.617-.08-.227.674-.792 1.085-1.131a34.636 34.636 0 0 0 2.895-2.612 1.641 1.641 0 0 0 0-1.616c-.343-.3-1.124-.125-1.687-.096-.21.061-.402.171-.562.322-2.81 1.922-5.352 8.649-4.548 11.961.382 1.566 1.355 2.544 2.867 2.148 1.513-.395 3.374-1 4.408-2.12a34.136 34.136 0 0 0 4.914-6.783c2.249-3.985 5.28-6.834 9.558-8.298 1.9-.65 3.874-.752 5.29.938 1.417 1.69.86 3.488.141 5.269a4.18 4.18 0 0 0-.4.627zm-2.157-2.929L61.016 74c-.888.063-1.766.224-2.62.48-3.131 1.318-5.954 6.823-5.301 10.176.258 1.311 1.686 1.956 2.485.898 1.31-1.752 2.85-3.759 3.047-5.782.1-1.251.59-2.438 1.4-3.392.438-.639.832-1.25 1.242-1.815zm16.608 11.91L77.36 86c-1.097 1.029-2.25 2.012-3.25 3.126-.247.271 0 .978 0 1.481.495-.164 1.18-.18 1.445-.526.854-1.147 1.557-2.402 2.322-3.617v.01zM17.635 89.64l2.165 1.204c.365-.752 1.158-1.605 1.012-2.261-.371-1.606-1.164-3.11-1.957-5.088-.511.826-.776 1.204-1 1.611a20.427 20.427 0 0 1-6.438 7.259C4.889 96.758.425 91.772.049 86.645c-.478-6.721 2.597-11.69 8.118-15.263a8.87 8.87 0 0 1 2.148-.944c2.249-.712 4.498-.254 5.532 1.278 1.243 1.882 1.024 3.957-.107 5.743a14.18 14.18 0 0 1-8.326 6.201c-.371.108-.76.175-1.125.255-.613 2.758.81 4.234 3.447 3.646 2.727-.61 4.396-2.578 5.937-4.703.843-1.165 1.434-2.216 1.293-3.924-.467-5.743 5.324-10.175 10.862-8.62 2.39.684 3.992 2.56 3.666 5.167-.225 1.797-1.124 3.595-2.097 5.178-.382.627-1.85 1.102-2.58.864-.732-.237-1.39-1.345-1.783-2.21-.326-.718-.157-1.503.967-1.724 1.518-.3 2.373-1.407 2.76-2.872.282-1.062-.123-1.594-1.253-1.616-2.62-.046-4.942 3.013-4.054 5.766.562 1.695 1.687 3.278 2.62 4.85 1.209 1.99 2.007 4.008 1.192 6.382-1.124 3.205-5.768 5.167-8.658 3.437-.787-.47-1.321-1.583-1.653-2.516-.13-.407.523-1.102.68-1.379zM7 79.161c3.756-.966 6.539-3.725 6.246-6.161C9.79 73.543 8.76 76.431 7 79.162zm86.142 4.782c-.314 2.929 1.125 4.364 3.83 3.347a14.295 14.295 0 0 0 4.497-3.092c1.17-1.102 1.945-2.612 2.957-3.89a1.307 1.307 0 0 1 1.08-.48c.356.225.589.603.63 1.023a4.096 4.096 0 0 1-.248 1.64 19.025 19.025 0 0 1-7.59 9.847c-6.37 4.257-10.868-.6-11.245-5.755-.506-6.783 2.61-11.808 8.22-15.364a8.408 8.408 0 0 1 2.165-.905c2.018-.565 4.02-.497 5.37 1.29 1.349 1.786 1.073 3.792 0 5.573-1.912 3.245-4.825 5.28-8.4 6.365-.372.113-.754.198-1.125.3a.506.506 0 0 0-.14.101zm7.733-10.931c-2.249-.215-5.06 2.555-5.875 5.777 3.306-.797 6.128-3.578 5.875-5.777zm120.302 13.645c-2.423.282-5.313-2.194-5.172-5.252a35.171 35.171 0 0 1 6.617-19.327c1.355-1.877 4.903-1.165 5.763 1.068.07.408-.03.827-.275 1.16-3.745 5.409-5.786 11.508-7.05 17.885-.282 1.419.061 2.956.117 4.466zm-1.256 8.16a3.77 3.77 0 0 1-4.25-1.13c-.822-1.13-.94-3.85-.068-4.946.376-.455.93-.725 1.518-.741a9.675 9.675 0 0 1 2.878.831c1.04.464 1.72 1.04.844 2.43-.596.894-.596 2.154-.922 3.556z" fill="#FFF"/></svg>