<svg width="24" height="24" viewBox="0 0 24 24" xmlns="http://www.w3.org/2000/svg"><title>Phone icon</title><path d="M15.39 13.21c.136 0 .644.227 1.524.681.88.455 1.346.73 1.398.822.021.052.032.13.032.233 0 .34-.089.734-.266 1.178-.167.403-.536.742-1.11 1.016-.572.273-1.103.41-1.593.41-.594 0-1.583-.32-2.969-.96a8.918 8.918 0 0 1-2.656-1.83c-.75-.755-1.52-1.71-2.313-2.869-.75-1.105-1.12-2.108-1.109-3.007V8.76c.031-.94.417-1.757 1.156-2.45.25-.227.521-.341.813-.341.062 0 .156.008.281.023.125.016.224.024.297.024.198 0 .336.033.414.1.078.067.159.21.242.427.084.206.255.661.516 1.364.26.703.39 1.09.39 1.163 0 .217-.18.514-.539.891-.359.378-.539.618-.539.721 0 .073.026.15.079.233.354.754.885 1.462 1.593 2.124.584.548 1.37 1.07 2.36 1.566a.7.7 0 0 0 .343.108c.157 0 .438-.25.844-.752.406-.501.677-.752.813-.752zm-3.171 8.216a9.613 9.613 0 0 0 3.804-.775c1.214-.517 2.258-1.21 3.133-2.077a9.814 9.814 0 0 0 2.094-3.109 9.412 9.412 0 0 0 .781-3.775c0-1.313-.26-2.571-.781-3.775a9.814 9.814 0 0 0-2.094-3.109c-.875-.868-1.919-1.56-3.133-2.077a9.613 9.613 0 0 0-3.804-.776 9.613 9.613 0 0 0-3.805.776c-1.213.516-2.258 1.209-3.133 2.077a9.814 9.814 0 0 0-2.093 3.109 9.412 9.412 0 0 0-.782 3.775c0 2.098.625 4 1.875 5.705l-1.234 3.613 3.781-1.194a9.662 9.662 0 0 0 5.39 1.612zm0-21.426c1.594 0 3.117.31 4.57.93 1.453.62 2.706 1.452 3.758 2.496s1.89 2.287 2.515 3.729c.625 1.442.938 2.954.938 4.535s-.313 3.093-.938 4.535c-.625 1.442-1.463 2.685-2.515 3.728-1.052 1.044-2.305 1.876-3.758 2.497-1.453.62-2.977.93-4.57.93-2.031 0-3.933-.486-5.703-1.458L0 24l2.125-6.28C1 15.882.437 13.87.437 11.69c0-1.581.313-3.093.938-4.535C2 5.713 2.839 4.47 3.891 3.426S6.195 1.55 7.648.93C9.102.31 10.625 0 12.218 0z" fill="#FFA922"/></svg>